<svg width="36" height="36" viewBox="0 0 36 36" fill="none" xmlns="http://www.w3.org/2000/svg">
<g clip-path="url(#clip0)">
<path d="M16.7308 22.9655C16.7915 23.5521 17.2866 23.9888 17.8638 23.9888C17.903 23.9888 17.9425 23.9868 17.9824 23.9827C18.6088 23.9179 19.0642 23.3576 18.9994 22.7312L18.4736 17.6424C18.4089 17.0158 17.8487 16.5607 17.2221 16.6253C16.5957 16.6901 16.1403 17.2504 16.2051 17.8768L16.7308 22.9655Z" fill="white"/>
<path d="M23.8675 23.9827C23.9073 23.9868 23.9468 23.9888 23.9861 23.9888C24.5631 23.9888 25.0583 23.5521 25.119 22.9655L25.6448 17.8767C25.7096 17.2501 25.2542 16.6898 24.6277 16.6252C24.0011 16.5615 23.4408 17.0158 23.3762 17.6422L22.8504 22.731C22.7855 23.3576 23.2409 23.9179 23.8675 23.9827Z" fill="white"/>
<path d="M15.0374 28.9396C13.091 28.9396 11.5076 30.523 11.5076 32.4694C11.5076 34.4163 13.091 36.0002 15.0374 36.0002C16.9838 36.0002 18.5674 34.4163 18.5674 32.4694C18.5674 30.523 16.9838 28.9396 15.0374 28.9396ZM15.0374 33.7193C14.3486 33.7193 13.7883 33.1585 13.7883 32.4693C13.7883 31.7805 14.3486 31.2202 15.0374 31.2202C15.7262 31.2202 16.2867 31.7805 16.2867 32.4693C16.2867 33.1585 15.7262 33.7193 15.0374 33.7193Z" fill="white"/>
<path d="M26.8123 28.9396C24.866 28.9396 23.2823 30.523 23.2823 32.4694C23.2823 34.4163 24.866 36.0002 26.8123 36.0002C28.7589 36.0002 30.3426 34.4163 30.3426 32.4694C30.3426 30.523 28.7589 28.9396 26.8123 28.9396ZM26.8123 33.7193C26.1236 33.7193 25.5631 33.1585 25.5631 32.4693C25.5631 31.7805 26.1236 31.2202 26.8123 31.2202C27.5013 31.2202 28.0619 31.7805 28.0619 32.4693C28.0619 33.1585 27.5013 33.7193 26.8123 33.7193Z" fill="white"/>
<path d="M33.6336 12.8212C33.4177 12.5419 33.0846 12.3783 32.7315 12.3783H10.0008L9.04636 8.70761C8.9156 8.20509 8.46188 7.85431 7.94263 7.85431H3.26861C2.63882 7.85431 2.12823 8.36489 2.12823 8.99469C2.12823 9.62448 2.63882 10.1351 3.26861 10.1351H7.06089L8.0068 13.7724C8.01197 13.7952 8.0179 13.8179 8.02444 13.8402L11.5444 27.376C11.6752 27.8786 12.1289 28.2293 12.6481 28.2293H29.2024C29.7217 28.2293 30.1754 27.8786 30.3062 27.376L33.8354 13.8056C33.9241 13.464 33.8495 13.1003 33.6336 12.8212ZM28.3205 25.9487H13.5297L10.5938 14.659H31.2565L28.3205 25.9487Z" fill="white"/>
</g>
<defs>
<clipPath id="clip0">
<rect width="36" height="36" fill="white"/>
</clipPath>
</defs>
</svg>
